<svg width="2262" height="719" viewBox="0 0 2262 719" fill="none" xmlns="http://www.w3.org/2000/svg">
<path d="M265 187H285V308.179C285 310.024 284.49 311.832 283.526 313.405L161.332 512.774C157.248 519.438 162.043 528 169.858 528H501.072C508.902 528 513.694 519.408 509.58 512.746L386.492 313.415C385.516 311.836 385 310.017 385 308.161V187H405" stroke="#40BF57" stroke-width="30" stroke-linecap="round"/>
<circle cx="305" cy="363" r="20" fill="#40BF57"/>
<circle cx="291.5" cy="462.5" r="26.5" fill="#40BF57"/>
<circle cx="376" cy="420" r="16" fill="#40BF57"/>
<circle cx="335" cy="257" r="16" fill="#40BF57"/>
<circle cx="335.5" cy="371.5" r="310.5" stroke="#40BF57" stroke-width="50"/>
<path d="M835 374C832.067 374 829.667 373.067 827.8 371.2C825.933 369.333 825 366.933 825 364V104C825 101.067 825.933 98.6667 827.8 96.8C829.667 94.9333 832.067 94 835 94H947C969.133 94 988.333 97.4667 1004.6 104.4C1021.13 111.067 1033.93 121.2 1043 134.8C1052.33 148.4 1057 165.6 1057 186.4C1057 206.933 1052.33 223.867 1043 237.2C1033.93 250.533 1021.13 260.4 1004.6 266.8C988.333 273.2 969.133 276.4 947 276.4H899.4V364C899.4 366.933 898.333 369.333 896.2 371.2C894.333 373.067 891.933 374 889 374H835ZM898.2 221.2H945C956.467 221.2 965.533 218.267 972.2 212.4C979.133 206.533 982.6 197.6 982.6 185.6C982.6 175.467 979.667 166.933 973.8 160C967.933 153.067 958.333 149.6 945 149.6H898.2V221.2ZM1148.63 378C1134.23 378 1121.29 375.333 1109.83 370C1098.63 364.4 1089.69 356.933 1083.03 347.6C1076.36 338.267 1073.03 327.733 1073.03 316C1073.03 297.067 1080.76 282.133 1096.23 271.2C1111.69 260 1132.23 252.4 1157.83 248.4L1207.83 240.8V235.2C1207.83 225.6 1205.83 218.267 1201.83 213.2C1197.83 208.133 1190.49 205.6 1179.83 205.6C1172.36 205.6 1166.23 207.067 1161.43 210C1156.89 212.933 1153.29 216.933 1150.63 222C1148.23 225.467 1144.89 227.2 1140.63 227.2H1095.83C1092.89 227.2 1090.63 226.4 1089.02 224.8C1087.43 222.933 1086.76 220.8 1087.03 218.4C1087.03 213.6 1088.76 208.133 1092.23 202C1095.96 195.6 1101.56 189.333 1109.03 183.2C1116.49 177.067 1126.09 172 1137.83 168C1149.56 164 1163.69 162 1180.22 162C1197.56 162 1212.36 164 1224.63 168C1236.89 172 1246.76 177.6 1254.23 184.8C1261.96 192 1267.69 200.533 1271.43 210.4C1275.16 220 1277.03 230.667 1277.03 242.4V364C1277.03 366.933 1275.96 369.333 1273.82 371.2C1271.96 373.067 1269.69 374 1267.03 374H1220.63C1217.69 374 1215.29 373.067 1213.43 371.2C1211.56 369.333 1210.63 366.933 1210.63 364V350C1207.16 355.067 1202.49 359.733 1196.63 364C1190.76 368.267 1183.83 371.6 1175.83 374C1168.09 376.667 1159.03 378 1148.63 378ZM1167.43 332.4C1175.16 332.4 1182.09 330.8 1188.23 327.6C1194.63 324.133 1199.56 318.933 1203.03 312C1206.76 304.8 1208.63 295.867 1208.63 285.2V279.6L1174.63 285.6C1162.09 287.733 1152.89 291.067 1147.03 295.6C1141.43 299.867 1138.63 304.933 1138.63 310.8C1138.63 315.333 1139.96 319.2 1142.63 322.4C1145.29 325.6 1148.76 328.133 1153.03 330C1157.29 331.6 1162.09 332.4 1167.43 332.4ZM1332.16 374C1329.23 374 1326.83 373.067 1324.96 371.2C1323.1 369.333 1322.16 366.933 1322.16 364V176C1322.16 173.067 1323.1 170.667 1324.96 168.8C1326.83 166.933 1329.23 166 1332.16 166H1378.16C1381.1 166 1383.5 166.933 1385.36 168.8C1387.23 170.667 1388.16 173.067 1388.16 176V191.2C1395.1 182.933 1404.16 176 1415.36 170.4C1426.56 164.8 1439.76 162 1454.96 162C1470.43 162 1484.03 165.467 1495.76 172.4C1507.76 179.333 1517.1 189.6 1523.76 203.2C1530.7 216.533 1534.16 232.933 1534.16 252.4V364C1534.16 366.933 1533.1 369.333 1530.96 371.2C1529.1 373.067 1526.83 374 1524.16 374H1473.76C1471.1 374 1468.7 373.067 1466.56 371.2C1464.7 369.333 1463.76 366.933 1463.76 364V254.8C1463.76 242.267 1460.7 232.667 1454.56 226C1448.7 219.067 1439.9 215.6 1428.16 215.6C1417.23 215.6 1408.43 219.067 1401.76 226C1395.36 232.667 1392.16 242.267 1392.16 254.8V364C1392.16 366.933 1391.1 369.333 1388.96 371.2C1387.1 373.067 1384.83 374 1382.16 374H1332.16ZM1683.25 374C1666.18 374 1651.38 371.333 1638.85 366C1626.58 360.4 1617.12 351.867 1610.45 340.4C1603.78 328.667 1600.45 313.6 1600.45 295.2V218.4H1569.25C1566.32 218.4 1563.78 217.467 1561.65 215.6C1559.78 213.733 1558.85 211.333 1558.85 208.4V176C1558.85 173.067 1559.78 170.667 1561.65 168.8C1563.78 166.933 1566.32 166 1569.25 166H1600.45V100C1600.45 97.0666 1601.38 94.6667 1603.25 92.8C1605.38 90.9333 1607.78 90 1610.45 90H1656.85C1659.78 90 1662.18 90.9333 1664.05 92.8C1665.92 94.6667 1666.85 97.0666 1666.85 100V166H1716.85C1719.78 166 1722.18 166.933 1724.05 168.8C1725.92 170.667 1726.85 173.067 1726.85 176V208.4C1726.85 211.333 1725.92 213.733 1724.05 215.6C1722.18 217.467 1719.78 218.4 1716.85 218.4H1666.85V289.6C1666.85 298.667 1668.58 305.867 1672.05 311.2C1675.52 316.533 1681.38 319.2 1689.65 319.2H1720.45C1723.38 319.2 1725.78 320.133 1727.65 322C1729.52 323.867 1730.45 326.267 1730.45 329.2V364C1730.45 366.933 1729.52 369.333 1727.65 371.2C1725.78 373.067 1723.38 374 1720.45 374H1683.25ZM1773.57 374C1770.64 374 1768.24 373.067 1766.37 371.2C1764.5 369.333 1763.57 366.933 1763.57 364V176C1763.57 173.333 1764.5 171.067 1766.37 169.2C1768.24 167.067 1770.64 166 1773.57 166H1819.57C1822.5 166 1824.9 167.067 1826.77 169.2C1828.64 171.067 1829.57 173.333 1829.57 176V192C1836.77 183.733 1845.3 177.333 1855.17 172.8C1865.3 168.267 1876.64 166 1889.17 166H1906.77C1909.44 166 1911.7 166.933 1913.57 168.8C1915.7 170.667 1916.77 173.067 1916.77 176V217.2C1916.77 219.867 1915.7 222.267 1913.57 224.4C1911.7 226.267 1909.44 227.2 1906.77 227.2H1867.97C1857.04 227.2 1848.5 230.267 1842.37 236.4C1836.5 242.267 1833.57 250.667 1833.57 261.6V364C1833.57 366.933 1832.5 369.333 1830.37 371.2C1828.5 373.067 1826.1 374 1823.17 374H1773.57ZM1984.01 450C1981.61 450 1979.61 449.2 1978.01 447.6C1976.41 446 1975.61 444 1975.61 441.6C1975.61 441.067 1975.61 440.267 1975.61 439.2C1975.88 438.4 1976.28 437.467 1976.81 436.4L2008.01 361.2L1931.21 179.6C1930.41 177.733 1930.01 176.133 1930.01 174.8C1930.54 172.4 1931.61 170.4 1933.21 168.8C1934.81 166.933 1936.81 166 1939.21 166H1984.81C1988.28 166 1990.81 166.933 1992.41 168.8C1994.28 170.4 1995.48 172.267 1996.01 174.4L2042.01 290.8L2088.81 174.4C2089.88 172.267 2091.21 170.4 2092.81 168.8C2094.68 166.933 2097.34 166 2100.81 166H2145.61C2148.01 166 2150.01 166.933 2151.61 168.8C2153.48 170.4 2154.41 172.267 2154.41 174.4C2154.41 175.733 2154.01 177.467 2153.21 179.6L2040.01 441.6C2039.21 443.733 2037.88 445.6 2036.01 447.2C2034.14 449.067 2031.48 450 2028.01 450H1984.01Z" fill="#40BF57"/>
<path d="M832.6 679C830.267 679 828.4 678.3 827 676.9C825.6 675.5 824.9 673.633 824.9 671.3V441.7C824.9 439.367 825.6 437.5 827 436.1C828.4 434.7 830.267 434 832.6 434H839.25C841.583 434 843.45 434.7 844.85 436.1C846.25 437.5 846.95 439.367 846.95 441.7V658H967.7C970.267 658 972.25 658.7 973.65 660.1C975.05 661.5 975.75 663.483 975.75 666.05V671.3C975.75 673.633 975.05 675.5 973.65 676.9C972.25 678.3 970.267 679 967.7 679H832.6ZM1061.1 682.5C1049.9 682.5 1039.51 680.167 1029.95 675.5C1020.61 670.833 1013.03 664.65 1007.2 656.95C1001.36 649.017 998.448 640.15 998.448 630.35C998.448 614.483 1004.86 601.767 1017.7 592.2C1030.53 582.633 1047.21 576.45 1067.75 573.65L1123.05 565.95V553.7C1123.05 541.333 1119.2 531.65 1111.5 524.65C1104.03 517.417 1092.01 513.8 1075.45 513.8C1063.31 513.8 1053.51 516.25 1046.05 521.15C1038.58 525.817 1033.45 532 1030.65 539.7C1029.48 543.2 1027.26 544.95 1024 544.95H1018.4C1015.6 544.95 1013.61 544.25 1012.45 542.85C1011.28 541.217 1010.7 539.35 1010.7 537.25C1010.7 533.983 1011.86 529.9 1014.2 525C1016.76 520.1 1020.61 515.317 1025.75 510.65C1030.88 505.75 1037.53 501.667 1045.7 498.4C1053.86 495.133 1063.78 493.5 1075.45 493.5C1089.21 493.5 1100.53 495.367 1109.4 499.1C1118.5 502.833 1125.5 507.733 1130.4 513.8C1135.53 519.633 1139.15 526.167 1141.25 533.4C1143.35 540.633 1144.4 547.75 1144.4 554.75V671.3C1144.4 673.633 1143.7 675.5 1142.3 676.9C1140.9 678.3 1139.03 679 1136.7 679H1130.75C1128.41 679 1126.55 678.3 1125.15 676.9C1123.75 675.5 1123.05 673.633 1123.05 671.3V654.85C1120.25 659.05 1116.28 663.25 1111.15 667.45C1106.01 671.65 1099.36 675.267 1091.2 678.3C1083.26 681.1 1073.23 682.5 1061.1 682.5ZM1064.6 662.2C1075.33 662.2 1085.13 659.867 1094 655.2C1102.86 650.533 1109.86 643.417 1115 633.85C1120.36 624.05 1123.05 611.8 1123.05 597.1V585.2L1077.9 591.5C1058.76 594.067 1044.3 598.5 1034.5 604.8C1024.7 611.1 1019.8 619.033 1019.8 628.6C1019.8 636.3 1022.01 642.6 1026.45 647.5C1030.88 652.4 1036.48 656.133 1043.25 658.7C1050.25 661.033 1057.36 662.2 1064.6 662.2ZM1280.24 682.5C1265.78 682.5 1253.76 679.933 1244.19 674.8C1234.86 669.433 1227.28 662.783 1221.44 654.85V671.3C1221.44 673.633 1220.74 675.5 1219.34 676.9C1217.94 678.3 1216.08 679 1213.74 679H1207.79C1205.46 679 1203.59 678.3 1202.19 676.9C1200.79 675.5 1200.09 673.633 1200.09 671.3V438.2C1200.09 435.867 1200.79 434 1202.19 432.6C1203.59 431.2 1205.46 430.5 1207.79 430.5H1213.74C1216.08 430.5 1217.94 431.2 1219.34 432.6C1220.74 434 1221.44 435.867 1221.44 438.2V521.15C1227.28 513.45 1234.86 506.917 1244.19 501.55C1253.76 496.183 1265.78 493.5 1280.24 493.5C1294.01 493.5 1305.56 495.95 1314.89 500.85C1324.23 505.75 1331.81 512.283 1337.64 520.45C1343.48 528.617 1347.79 537.717 1350.59 547.75C1353.39 557.783 1354.91 567.933 1355.14 578.2C1355.38 581.7 1355.49 584.967 1355.49 588C1355.49 591.033 1355.38 594.3 1355.14 597.8C1354.91 608.067 1353.39 618.217 1350.59 628.25C1347.79 638.283 1343.48 647.383 1337.64 655.55C1331.81 663.717 1324.23 670.25 1314.89 675.15C1305.56 680.05 1294.01 682.5 1280.24 682.5ZM1278.14 662.2C1291.91 662.2 1302.76 659.167 1310.69 653.1C1318.63 647.033 1324.34 639.1 1327.84 629.3C1331.34 619.5 1333.33 609 1333.79 597.8C1334.03 591.267 1334.03 584.733 1333.79 578.2C1333.33 567 1331.34 556.5 1327.84 546.7C1324.34 536.9 1318.63 528.967 1310.69 522.9C1302.76 516.833 1291.91 513.8 1278.14 513.8C1265.31 513.8 1254.69 516.833 1246.29 522.9C1238.13 528.967 1231.94 536.55 1227.74 545.65C1223.78 554.75 1221.68 563.967 1221.44 573.3C1221.21 576.8 1221.09 581.35 1221.09 586.95C1221.09 592.55 1221.21 597.1 1221.44 600.6C1221.91 610.167 1224.01 619.733 1227.74 629.3C1231.71 638.633 1237.78 646.45 1245.94 652.75C1254.11 659.05 1264.84 662.2 1278.14 662.2Z" fill="#40BF57"/>
</svg>
