<svg width="1470" height="767" viewBox="0 0 1470 767" fill="none" xmlns="http://www.w3.org/2000/svg">
<path d="M43 374C40.0667 374 37.6667 373.067 35.8 371.2C33.9333 369.333 33 366.933 33 364V104C33 101.067 33.9333 98.6667 35.8 96.8C37.6667 94.9333 40.0667 94 43 94H155C177.133 94 196.333 97.4667 212.6 104.4C229.133 111.067 241.933 121.2 251 134.8C260.333 148.4 265 165.6 265 186.4C265 206.933 260.333 223.867 251 237.2C241.933 250.533 229.133 260.4 212.6 266.8C196.333 273.2 177.133 276.4 155 276.4H107.4V364C107.4 366.933 106.333 369.333 104.2 371.2C102.333 373.067 99.9333 374 97 374H43ZM106.2 221.2H153C164.467 221.2 173.533 218.267 180.2 212.4C187.133 206.533 190.6 197.6 190.6 185.6C190.6 175.467 187.667 166.933 181.8 160C175.933 153.067 166.333 149.6 153 149.6H106.2V221.2ZM356.625 378C342.225 378 329.292 375.333 317.825 370C306.625 364.4 297.692 356.933 291.025 347.6C284.358 338.267 281.025 327.733 281.025 316C281.025 297.067 288.758 282.133 304.225 271.2C319.692 260 340.225 252.4 365.825 248.4L415.825 240.8V235.2C415.825 225.6 413.825 218.267 409.825 213.2C405.825 208.133 398.492 205.6 387.825 205.6C380.358 205.6 374.225 207.067 369.425 210C364.892 212.933 361.292 216.933 358.625 222C356.225 225.467 352.892 227.2 348.625 227.2H303.825C300.892 227.2 298.625 226.4 297.025 224.8C295.425 222.933 294.758 220.8 295.025 218.4C295.025 213.6 296.758 208.133 300.225 202C303.958 195.6 309.558 189.333 317.025 183.2C324.492 177.067 334.092 172 345.825 168C357.558 164 371.692 162 388.225 162C405.558 162 420.358 164 432.625 168C444.892 172 454.758 177.6 462.225 184.8C469.958 192 475.692 200.533 479.425 210.4C483.158 220 485.025 230.667 485.025 242.4V364C485.025 366.933 483.958 369.333 481.825 371.2C479.958 373.067 477.692 374 475.025 374H428.625C425.692 374 423.292 373.067 421.425 371.2C419.558 369.333 418.625 366.933 418.625 364V350C415.158 355.067 410.492 359.733 404.625 364C398.758 368.267 391.825 371.6 383.825 374C376.092 376.667 367.025 378 356.625 378ZM375.425 332.4C383.158 332.4 390.092 330.8 396.225 327.6C402.625 324.133 407.558 318.933 411.025 312C414.758 304.8 416.625 295.867 416.625 285.2V279.6L382.625 285.6C370.092 287.733 360.892 291.067 355.025 295.6C349.425 299.867 346.625 304.933 346.625 310.8C346.625 315.333 347.958 319.2 350.625 322.4C353.292 325.6 356.758 328.133 361.025 330C365.292 331.6 370.092 332.4 375.425 332.4ZM540.163 374C537.229 374 534.829 373.067 532.962 371.2C531.096 369.333 530.163 366.933 530.163 364V176C530.163 173.067 531.096 170.667 532.962 168.8C534.829 166.933 537.229 166 540.163 166H586.163C589.096 166 591.496 166.933 593.363 168.8C595.229 170.667 596.163 173.067 596.163 176V191.2C603.096 182.933 612.163 176 623.363 170.4C634.563 164.8 647.763 162 662.963 162C678.429 162 692.029 165.467 703.763 172.4C715.763 179.333 725.096 189.6 731.763 203.2C738.696 216.533 742.163 232.933 742.163 252.4V364C742.163 366.933 741.096 369.333 738.963 371.2C737.096 373.067 734.829 374 732.163 374H681.763C679.096 374 676.696 373.067 674.563 371.2C672.696 369.333 671.763 366.933 671.763 364V254.8C671.763 242.267 668.696 232.667 662.563 226C656.696 219.067 647.896 215.6 636.163 215.6C625.229 215.6 616.429 219.067 609.763 226C603.363 232.667 600.163 242.267 600.163 254.8V364C600.163 366.933 599.096 369.333 596.963 371.2C595.096 373.067 592.829 374 590.163 374H540.163ZM891.25 374C874.183 374 859.383 371.333 846.85 366C834.583 360.4 825.117 351.867 818.45 340.4C811.783 328.667 808.45 313.6 808.45 295.2V218.4H777.25C774.317 218.4 771.783 217.467 769.65 215.6C767.783 213.733 766.85 211.333 766.85 208.4V176C766.85 173.067 767.783 170.667 769.65 168.8C771.783 166.933 774.317 166 777.25 166H808.45V100C808.45 97.0666 809.383 94.6667 811.25 92.8C813.383 90.9333 815.783 90 818.45 90H864.85C867.783 90 870.183 90.9333 872.05 92.8C873.917 94.6667 874.85 97.0666 874.85 100V166H924.85C927.783 166 930.183 166.933 932.05 168.8C933.917 170.667 934.85 173.067 934.85 176V208.4C934.85 211.333 933.917 213.733 932.05 215.6C930.183 217.467 927.783 218.4 924.85 218.4H874.85V289.6C874.85 298.667 876.583 305.867 880.05 311.2C883.517 316.533 889.383 319.2 897.65 319.2H928.45C931.383 319.2 933.783 320.133 935.65 322C937.517 323.867 938.45 326.267 938.45 329.2V364C938.45 366.933 937.517 369.333 935.65 371.2C933.783 373.067 931.383 374 928.45 374H891.25ZM981.569 374C978.635 374 976.235 373.067 974.369 371.2C972.502 369.333 971.569 366.933 971.569 364V176C971.569 173.333 972.502 171.067 974.369 169.2C976.235 167.067 978.635 166 981.569 166H1027.57C1030.5 166 1032.9 167.067 1034.77 169.2C1036.64 171.067 1037.57 173.333 1037.57 176V192C1044.77 183.733 1053.3 177.333 1063.17 172.8C1073.3 168.267 1084.64 166 1097.17 166H1114.77C1117.44 166 1119.7 166.933 1121.57 168.8C1123.7 170.667 1124.77 173.067 1124.77 176V217.2C1124.77 219.867 1123.7 222.267 1121.57 224.4C1119.7 226.267 1117.44 227.2 1114.77 227.2H1075.97C1065.04 227.2 1056.5 230.267 1050.37 236.4C1044.5 242.267 1041.57 250.667 1041.57 261.6V364C1041.57 366.933 1040.5 369.333 1038.37 371.2C1036.5 373.067 1034.1 374 1031.17 374H981.569ZM1192.01 450C1189.61 450 1187.61 449.2 1186.01 447.6C1184.41 446 1183.61 444 1183.61 441.6C1183.61 441.067 1183.61 440.267 1183.61 439.2C1183.88 438.4 1184.28 437.467 1184.81 436.4L1216.01 361.2L1139.21 179.6C1138.41 177.733 1138.01 176.133 1138.01 174.8C1138.54 172.4 1139.61 170.4 1141.21 168.8C1142.81 166.933 1144.81 166 1147.21 166H1192.81C1196.28 166 1198.81 166.933 1200.41 168.8C1202.28 170.4 1203.48 172.267 1204.01 174.4L1250.01 290.8L1296.81 174.4C1297.88 172.267 1299.21 170.4 1300.81 168.8C1302.68 166.933 1305.34 166 1308.81 166H1353.61C1356.01 166 1358.01 166.933 1359.61 168.8C1361.48 170.4 1362.41 172.267 1362.41 174.4C1362.41 175.733 1362.01 177.467 1361.21 179.6L1248.01 441.6C1247.21 443.733 1245.88 445.6 1244.01 447.2C1242.14 449.067 1239.48 450 1236.01 450H1192.01Z" fill="black"/>
<path d="M40.6 679C38.2667 679 36.4 678.3 35 676.9C33.6 675.5 32.9 673.633 32.9 671.3V441.7C32.9 439.367 33.6 437.5 35 436.1C36.4 434.7 38.2667 434 40.6 434H47.25C49.5833 434 51.45 434.7 52.85 436.1C54.25 437.5 54.95 439.367 54.95 441.7V658H175.7C178.267 658 180.25 658.7 181.65 660.1C183.05 661.5 183.75 663.483 183.75 666.05V671.3C183.75 673.633 183.05 675.5 181.65 676.9C180.25 678.3 178.267 679 175.7 679H40.6ZM269.098 682.5C257.898 682.5 247.515 680.167 237.948 675.5C228.615 670.833 221.031 664.65 215.198 656.95C209.365 649.017 206.448 640.15 206.448 630.35C206.448 614.483 212.865 601.767 225.698 592.2C238.531 582.633 255.215 576.45 275.748 573.65L331.048 565.95V553.7C331.048 541.333 327.198 531.65 319.498 524.65C312.031 517.417 300.015 513.8 283.448 513.8C271.315 513.8 261.515 516.25 254.048 521.15C246.581 525.817 241.448 532 238.648 539.7C237.481 543.2 235.265 544.95 231.998 544.95H226.398C223.598 544.95 221.615 544.25 220.448 542.85C219.281 541.217 218.698 539.35 218.698 537.25C218.698 533.983 219.865 529.9 222.198 525C224.765 520.1 228.615 515.317 233.748 510.65C238.881 505.75 245.531 501.667 253.698 498.4C261.865 495.133 271.781 493.5 283.448 493.5C297.215 493.5 308.531 495.367 317.398 499.1C326.498 502.833 333.498 507.733 338.398 513.8C343.531 519.633 347.148 526.167 349.248 533.4C351.348 540.633 352.398 547.75 352.398 554.75V671.3C352.398 673.633 351.698 675.5 350.298 676.9C348.898 678.3 347.031 679 344.698 679H338.748C336.415 679 334.548 678.3 333.148 676.9C331.748 675.5 331.048 673.633 331.048 671.3V654.85C328.248 659.05 324.281 663.25 319.148 667.45C314.015 671.65 307.365 675.267 299.198 678.3C291.265 681.1 281.231 682.5 269.098 682.5ZM272.598 662.2C283.331 662.2 293.131 659.867 301.998 655.2C310.865 650.533 317.865 643.417 322.998 633.85C328.365 624.05 331.048 611.8 331.048 597.1V585.2L285.898 591.5C266.765 594.067 252.298 598.5 242.498 604.8C232.698 611.1 227.798 619.033 227.798 628.6C227.798 636.3 230.015 642.6 234.448 647.5C238.881 652.4 244.481 656.133 251.248 658.7C258.248 661.033 265.365 662.2 272.598 662.2ZM488.245 682.5C473.778 682.5 461.761 679.933 452.195 674.8C442.861 669.433 435.278 662.783 429.445 654.85V671.3C429.445 673.633 428.745 675.5 427.345 676.9C425.945 678.3 424.078 679 421.745 679H415.795C413.461 679 411.595 678.3 410.195 676.9C408.795 675.5 408.095 673.633 408.095 671.3V438.2C408.095 435.867 408.795 434 410.195 432.6C411.595 431.2 413.461 430.5 415.795 430.5H421.745C424.078 430.5 425.945 431.2 427.345 432.6C428.745 434 429.445 435.867 429.445 438.2V521.15C435.278 513.45 442.861 506.917 452.195 501.55C461.761 496.183 473.778 493.5 488.245 493.5C502.011 493.5 513.561 495.95 522.895 500.85C532.228 505.75 539.811 512.283 545.645 520.45C551.478 528.617 555.795 537.717 558.595 547.75C561.395 557.783 562.911 567.933 563.145 578.2C563.378 581.7 563.495 584.967 563.495 588C563.495 591.033 563.378 594.3 563.145 597.8C562.911 608.067 561.395 618.217 558.595 628.25C555.795 638.283 551.478 647.383 545.645 655.55C539.811 663.717 532.228 670.25 522.895 675.15C513.561 680.05 502.011 682.5 488.245 682.5ZM486.145 662.2C499.911 662.2 510.761 659.167 518.695 653.1C526.628 647.033 532.345 639.1 535.845 629.3C539.345 619.5 541.328 609 541.795 597.8C542.028 591.267 542.028 584.733 541.795 578.2C541.328 567 539.345 556.5 535.845 546.7C532.345 536.9 526.628 528.967 518.695 522.9C510.761 516.833 499.911 513.8 486.145 513.8C473.311 513.8 462.695 516.833 454.295 522.9C446.128 528.967 439.945 536.55 435.745 545.65C431.778 554.75 429.678 563.967 429.445 573.3C429.211 576.8 429.095 581.35 429.095 586.95C429.095 592.55 429.211 597.1 429.445 600.6C429.911 610.167 432.011 619.733 435.745 629.3C439.711 638.633 445.778 646.45 453.945 652.75C462.111 659.05 472.845 662.2 486.145 662.2Z" fill="black"/>
</svg>
